<?xml version="1.0" standalone="no"?><!-- Generator: Gravit.io --><svg xmlns="http://www.w3.org/2000/svg" xmlns:xlink="http://www.w3.org/1999/xlink" style="isolation:isolate" viewBox="0 0 20 20" width="20" height="20"><defs><clipPath id="_clipPath_4BR25iHun4zeHkp3w52bQhwYNyJHajMz"><rect width="20" height="20"/></clipPath></defs><g clip-path="url(#_clipPath_4BR25iHun4zeHkp3w52bQhwYNyJHajMz)"><path d=" M 0 9.984 C 0 15.503 4.481 19.984 10 19.984 C 15.519 19.984 20 15.503 20 9.984 C 20 4.464 15.519 -0.016 10 -0.016 C 4.481 -0.016 0 4.464 0 9.984 L 0 9.984 Z  M 7.53 9.765 L 5.212 11.871 L 6.257 15.822 L 9.422 16.919 L 12.524 14.035 L 11.335 11.1 L 7.53 9.765 Z  M 3.199 4.091 C 4.724 2.333 6.918 1.172 9.383 1.004 L 9.528 1.775 L 6.107 5.376 L 3.94 5.498 L 3.199 4.091 L 3.199 4.091 Z  M 7.665 8.752 L 6.95 5.939 L 10.139 2.584 C 10.829 2.643 11.653 2.859 12.492 3.23 C 12.873 3.399 13.229 3.587 13.552 3.787 L 13.552 3.787 L 13.888 8.259 L 11.707 10.17 L 7.665 8.752 Z  M 2.529 4.966 C 1.585 6.368 1.025 8.05 1.001 9.86 L 2.129 9.525 L 3.012 5.882 L 2.529 4.966 L 2.529 4.966 Z  M 1.045 10.89 C 1.299 13.422 2.604 15.647 4.518 17.119 L 5.286 16.059 L 4.205 11.976 L 2.511 10.455 L 1.045 10.89 L 1.045 10.89 Z  M 10.206 18.981 C 12.736 18.924 15.009 17.821 16.61 16.088 L 15.765 14.603 L 13.378 14.607 L 10.038 17.711 L 10.206 18.981 L 10.206 18.981 Z  M 18.907 8.685 C 18.596 6.535 17.523 4.63 15.972 3.253 L 14.565 3.921 L 14.88 8.116 L 17.015 9.778 L 18.907 8.685 Z  M 18.998 9.788 C 18.999 9.853 19 9.918 19 9.984 C 19 11.954 18.365 13.777 17.29 15.26 L 17.29 15.26 L 16.578 14.01 L 17.575 10.609 L 18.998 9.788 Z " fill-rule="evenodd" fill="rgb(0,0,0)"/><rect x="0" y="10.391" width="8.922" height="3.707" transform="matrix(1,0,0,1,0,0)" fill="rgb(255,255,255)"/><rect x="0.363" y="11.919" width="10.701" height="8.064" transform="matrix(1,0,0,1,0,0)" fill="rgb(255,255,255)"/><g transform="matrix(1,0,0,1,0.004,8.145)"><text transform="matrix(1,0,0,1,0.75,13.581)" style="font-family:&quot;Franklin Gothic Heavy&quot;;font-weight:400;font-size:14px;font-style:normal;fill:#009688;stroke:#FFFFFF;stroke-width:0.5;">P</text></g></g></svg>