<svg xmlns="http://www.w3.org/2000/svg" viewBox="0 0 20 20"><path d="M0 9.984c0 5.519 4.481 10 10 10s10-4.481 10-10c0-5.52-4.481-10-10-10s-10 4.48-10 10zm7.53-.219l-2.318 2.106 1.045 3.951 3.165 1.097 3.102-2.884-1.189-2.935L7.53 9.765zM3.199 4.091a8.987 8.987 0 0 1 6.184-3.087l.145.771-3.421 3.601-2.167.122-.741-1.407zm4.466 4.661L6.95 5.939l3.189-3.355c.69.059 1.515.275 2.353.646.381.169.737.357 1.06.557l.336 4.472-2.181 1.911-4.042-1.418zM2.529 4.966A8.949 8.949 0 0 0 1.001 9.86l1.128-.335.883-3.643-.483-.916zM1.045 10.89a8.99 8.99 0 0 0 3.473 6.229l.768-1.06-1.081-4.083-1.694-1.521-1.466.435zm9.161 8.091a8.975 8.975 0 0 0 6.404-2.893l-.845-1.485-2.387.004-3.34 3.104.168 1.27zm8.701-10.296a8.985 8.985 0 0 0-2.935-5.432l-1.407.668.315 4.195 2.135 1.662 1.892-1.093zm.091 1.103l.002.196a8.96 8.96 0 0 1-1.71 5.276l-.712-1.25.997-3.401 1.423-.821z" fill-rule="evenodd"/></svg>
