<svg width="20" height="20" viewBox="0 0 20 20" fill="none" xmlns="http://www.w3.org/2000/svg">
<circle cx="10" cy="10" r="10" fill="white"/>
<path fill-rule="evenodd" clip-rule="evenodd" d="M1 10C1 14.9671 5.0329 19 10 19C14.9671 19 19 14.9671 19 10C19 5.032 14.9671 1 10 1C5.0329 1 1 5.032 1 10ZM7.777 9.8029L5.6908 11.6983L6.6313 15.2542L9.4798 16.2415L12.2716 13.6459L11.2015 11.0044L7.777 9.8029ZM3.8791 4.6963C4.57752 3.8888 5.4289 3.22756 6.38413 2.75071C7.33936 2.27387 8.37955 1.99086 9.4447 1.918L9.5752 2.6119L6.4963 5.8528L4.546 5.9626L3.8791 4.6963ZM7.8985 8.8912L7.255 6.3595L10.1251 3.34C10.7461 3.3931 11.4886 3.5875 12.2428 3.9214C12.5857 4.0735 12.9061 4.2427 13.1968 4.4227L13.4992 8.4475L11.5363 10.1674L7.8985 8.8912ZM3.2761 5.4838C2.39793 6.78646 1.91991 8.3175 1.9009 9.8884L2.9161 9.5869L3.7108 6.3082L3.2761 5.4838ZM1.9405 10.8154C2.05153 11.9136 2.38612 12.9775 2.92366 13.9417C3.4612 14.9058 4.19034 15.7497 5.0662 16.4215L5.7574 15.4675L4.7845 11.7928L3.2599 10.4239L1.9405 10.8154ZM10.1854 18.0973C11.2718 18.0733 12.3423 17.8304 13.3326 17.383C14.323 16.9356 15.2128 16.293 15.949 15.4936L15.1885 14.1571L13.0402 14.1607L10.0342 16.9543L10.1854 18.0973ZM18.0163 8.8309C17.7409 6.94044 16.8051 5.20852 15.3748 3.9421L14.1085 4.5433L14.392 8.3188L16.3135 9.8146L18.0163 8.8309ZM18.0982 9.8236L18.1 10C18.1021 11.7057 17.5633 13.3682 16.561 14.7484L15.9202 13.6234L16.8175 10.5625L18.0982 9.8236Z" fill="black"/>
</svg>
