<svg width="20" height="20" viewBox="0 0 20 20" fill="none" xmlns="http://www.w3.org/2000/svg">
    <circle cx="10" cy="10" r="10" fill="#CCCCCC"/>
    <circle cx="10" cy="10" r="9" fill="black"/>
    <path fill-rule="evenodd" clip-rule="evenodd"
          d="M7.52998 9.765L5.21198 11.871L6.25698 15.822L9.42198 16.919L12.524 14.035L11.335 11.1L7.52998 9.765ZM3.19898 4.091C3.975 3.19377 4.92097 2.45906 5.98234 1.92923C7.04371 1.39941 8.19948 1.08495 9.38298 1.004L9.52798 1.775L6.10698 5.376L3.93998 5.498L3.19898 4.091ZM7.66498 8.752L6.94998 5.939L10.139 2.584C10.829 2.643 11.654 2.859 12.492 3.23C12.873 3.399 13.229 3.587 13.552 3.787L13.888 8.259L11.707 10.17L7.66498 8.752ZM2.49998 5C1.52424 6.4474 1.0221 8.11455 1.00098 9.86L2.12898 9.525L3.01198 5.882L2.49998 5ZM1.04498 10.89C1.16835 12.1103 1.5401 13.2924 2.13737 14.3636C2.73465 15.4349 3.5448 16.3725 4.51798 17.119L5.28598 16.059L4.20498 11.976L2.51098 10.455L1.04498 10.89ZM10.206 18.981C11.4131 18.9544 12.6025 18.6844 13.7029 18.1873C14.8033 17.6902 15.792 16.9762 16.61 16.088L15.765 14.603L13.378 14.607L10.038 17.711L10.206 18.981ZM18.907 8.685C18.601 6.58449 17.5612 4.66013 15.972 3.253L14.565 3.921L14.88 8.116L17.015 9.778L18.907 8.685ZM18.998 9.788L19 9.984C19.0023 11.8793 18.4036 13.7264 17.29 15.26L16.578 14.01L17.575 10.609L18.998 9.788Z"
          fill="white"/>
</svg>
