<svg width="17" height="20" viewBox="0 0 17 20" fill="none" xmlns="http://www.w3.org/2000/svg">
<g clip-path="url(#clip0)">
<rect width="20" height="17" transform="translate(17) rotate(90)" fill="white"/>
<path d="M17 0L17 20L-1.20205e-06 20L-3.27826e-07 -7.43094e-07L17 0Z" fill="#57A455"/>
<path d="M12 18.5L12.5 18.5L12.5 18L12.5 16L12.5 15.5L12 15.5L5 15.5L4.5 15.5L4.5 16L4.5 18L4.5 18.5L5 18.5L12 18.5Z" stroke="#99C297"/>
<path d="M12 4.5L12.5 4.5L12.5 4L12.5 2L12.5 1.5L12 1.5L5 1.5L4.5 1.5L4.5 2L4.5 4L4.5 4.5L5 4.5L12 4.5Z" stroke="#99C297"/>
<path d="M15 18.5L15.5 18.5L15.5 18L15.5 2L15.5 1.5L15 1.5L2 1.5L1.5 1.5L1.5 2L1.5 18L1.5 18.5L2 18.5L15 18.5Z" stroke="#99C297"/>
<path d="M9.10631 11C9.07422 11.0009 9.04182 11.0105 9.01196 11.0292L7.09967 12.2287C7.00413 12.2886 6.97172 12.4202 7.02688 12.524L7.6783 13.75C7.73346 13.8538 7.85487 13.889 7.95041 13.8291L8.94983 13.2022V17.7834C8.94983 17.9033 9.03883 18 9.14915 18H12.841C12.9514 18 13.0401 17.9033 13.0401 17.7834V13.196L14.0498 13.8292C14.1454 13.8891 14.2665 13.8539 14.3217 13.7501L14.9731 12.5241C15.0283 12.4203 14.9959 12.2887 14.9003 12.2288L12.9883 11.0293C12.9495 11.005 12.9063 10.9963 12.8651 11.0016C12.8572 11.0006 12.8492 11.0001 12.841 11.0001H11.7834C11.7678 11.1364 11.4226 11.2456 10.9999 11.2456C10.5771 11.2456 10.2322 11.1364 10.2166 11.0001H9.14912C9.14269 11.0001 9.13634 11.0007 9.13008 11.0013C9.12213 11.0005 9.11431 10.9999 9.10628 11.0001L9.10631 11Z" fill="white"/>
<path fill-rule="evenodd" clip-rule="evenodd" d="M9.8 6.9L15 6.9L15 4.1L9.8 4.1L9.8 2L2 5.5L9.8 9L9.8 6.9Z" fill="white"/>
</g>
<defs>
<clipPath id="clip0">
<rect width="20" height="17" fill="white" transform="translate(17) rotate(90)"/>
</clipPath>
</defs>
</svg>
