<svg width="17" height="20" viewBox="0 0 17 20" fill="none" xmlns="http://www.w3.org/2000/svg">
<g clip-path="url(#clip0)">
<rect width="20" height="17" transform="translate(17) rotate(90)" fill="white"/>
<path d="M17 0L17 20L-1.20205e-06 20L-3.27826e-07 -7.43094e-07L17 0Z" fill="#57A455"/>
<path d="M12 18.5L12.5 18.5L12.5 18L12.5 16L12.5 15.5L12 15.5L5 15.5L4.5 15.5L4.5 16L4.5 18L4.5 18.5L5 18.5L12 18.5Z" stroke="#99C297"/>
<path d="M12 4.5L12.5 4.5L12.5 4L12.5 2L12.5 1.5L12 1.5L5 1.5L4.5 1.5L4.5 2L4.5 4L4.5 4.5L5 4.5L12 4.5Z" stroke="#99C297"/>
<path d="M15 18.5L15.5 18.5L15.5 18L15.5 2L15.5 1.5L15 1.5L2 1.5L1.5 1.5L1.5 2L1.5 18L1.5 18.5L2 18.5L15 18.5Z" stroke="#99C297"/>
<path d="M5.42275 8C5.3706 8.00148 5.31796 8.01645 5.26944 8.04588L2.16196 9.9308C2.0067 10.025 1.95404 10.2318 2.04368 10.3949L3.10224 12.3214C3.19188 12.4845 3.38917 12.5398 3.54442 12.4457L5.16847 11.4607V18.6597C5.16847 18.848 5.3131 19 5.49237 19H11.4917C11.671 19 11.8151 18.848 11.8151 18.6597V11.4508L13.456 12.4459C13.6113 12.54 13.8081 12.4847 13.8977 12.3216L14.9563 10.3951C15.046 10.2319 14.9933 10.0252 14.8381 9.93099L11.731 8.04608C11.6679 8.00782 11.5977 7.99426 11.5308 8.00259C11.518 8.00097 11.505 8.0002 11.4917 8.0002H9.77307C9.74765 8.21441 9.18671 8.38589 8.4998 8.38589C7.81282 8.38589 7.25238 8.21441 7.2269 8.0002H5.49231C5.48188 8.0002 5.47155 8.0011 5.46138 8.00211C5.44847 8.00083 5.43575 7.99983 5.42271 8.0002L5.42275 8Z" fill="white"/>
</g>
<defs>
<clipPath id="clip0">
<rect width="20" height="17" fill="white" transform="translate(17) rotate(90)"/>
</clipPath>
</defs>
</svg>
