<svg xmlns="http://www.w3.org/2000/svg" xmlns:xlink="http://www.w3.org/1999/xlink" style="display:none"><defs><clipPath id="a"><path d="M0 0h20v20H0z"/></clipPath><clipPath id="a"><path d="M0 0h20v20H0z"/></clipPath><clipPath id="a"><path d="M0 0h20v20H0z"/></clipPath><clipPath id="a"><path d="M0 0h20v20H0z"/></clipPath><clipPath id="a"><path d="M0 0h20v20H0z"/></clipPath></defs><symbol id="icon-alert" viewBox="0 0 24 24"><path d="M13 17.5a1 1 0 11-2 0 1 1 0 012 0zm-.25-8.25a.75.75 0 00-1.5 0v4.5a.75.75 0 001.5 0v-4.5z"/><path fill-rule="evenodd" d="M9.836 3.244c.963-1.665 3.365-1.665 4.328 0l8.967 15.504c.963 1.667-.24 3.752-2.165 3.752H3.034c-1.926 0-3.128-2.085-2.165-3.752L9.836 3.244zm3.03.751a1 1 0 00-1.732 0L2.168 19.499A1 1 0 003.034 21h17.932a1 1 0 00.866-1.5L12.866 3.994z"/></symbol><symbol id="icon-arrow-bottom" viewBox="0 0 32 32"><path d="M6 22l10 8 10-8m-10 8V2"/></symbol><symbol id="icon-arrow-left-circle" viewBox="0 0 24 24"><circle cx="12" cy="12" r="10"/><path d="M12 8l-4 4 4 4M16 12H8"/></symbol><symbol id="icon-arrow-left" viewBox="0 0 32 32"><path d="M10 6L2 16l8 10M2 16h28"/></symbol><symbol id="icon-arrow-right" viewBox="0 0 32 32"><path d="M22 6l8 10-8 10m8-10H2"/></symbol><symbol id="icon-arrow-top" viewBox="0 0 32 32"><path d="M6 10l10-8 10 8M16 2v28"/></symbol><symbol id="icon-ball" viewBox="0 0 20 20"><path d="M0 9.984c0 5.519 4.481 10 10 10s10-4.481 10-10c0-5.52-4.481-10-10-10s-10 4.48-10 10zm7.53-.219l-2.318 2.106 1.045 3.951 3.165 1.097 3.102-2.884-1.189-2.935L7.53 9.765zM3.199 4.091a8.987 8.987 0 016.184-3.087l.145.771-3.421 3.601-2.167.122-.741-1.407zm4.466 4.661L6.95 5.939l3.189-3.355c.69.059 1.515.275 2.353.646.381.169.737.357 1.06.557l.336 4.472-2.181 1.911-4.042-1.418zM2.529 4.966A8.949 8.949 0 001.001 9.86l1.128-.335.883-3.643-.483-.916zM1.045 10.89a8.99 8.99 0 003.473 6.229l.768-1.06-1.081-4.083-1.694-1.521-1.466.435zm9.161 8.091a8.975 8.975 0 006.404-2.893l-.845-1.485-2.387.004-3.34 3.104.168 1.27zm8.701-10.296a8.985 8.985 0 00-2.935-5.432l-1.407.668.315 4.195 2.135 1.662 1.892-1.093zm.091 1.103l.002.196a8.96 8.96 0 01-1.71 5.276l-.712-1.25.997-3.401 1.423-.821z" fill-rule="evenodd"/></symbol><symbol id="icon-ball_canceled" viewBox="0 0 20 20"><g clip-path="url(#a)"><path d="M0 9.984c0 5.519 4.481 10 10 10s10-4.481 10-10c0-5.52-4.481-10-10-10s-10 4.48-10 10zm7.53-.219l-2.318 2.106 1.045 3.951 3.165 1.097 3.102-2.884-1.189-2.935L7.53 9.765zM3.199 4.091a8.987 8.987 0 016.184-3.087l.145.771-3.421 3.601-2.167.122-.741-1.407zm4.466 4.661L6.95 5.939l3.189-3.355c.69.059 1.514.275 2.353.646.381.169.737.357 1.06.557l.336 4.472-2.181 1.911-4.042-1.418zM2.529 4.966A8.949 8.949 0 001.001 9.86l1.128-.335.883-3.643-.483-.916zM1.045 10.89a8.99 8.99 0 003.473 6.229l.768-1.06-1.081-4.083-1.694-1.521-1.466.435zm9.161 8.091a8.975 8.975 0 006.404-2.893l-.845-1.485-2.387.004-3.34 3.104.168 1.27zm8.701-10.296a8.985 8.985 0 00-2.935-5.432l-1.407.668.315 4.195 2.135 1.662 1.892-1.093zm.091 1.103l.002.196a8.96 8.96 0 01-1.71 5.276l-.712-1.25.997-3.401 1.423-.821z" fill-rule="evenodd" fill="#6C6C6C"/><path d="M17.365 1.963l1.259 1.259c.13.13.13.341 0 .471L2.88 19.437a.333.333 0 01-.471 0L1.15 18.178a.332.332 0 010-.47L16.894 1.963c.13-.13.341-.13.471 0z" fill="#c83131"/><path d="M18.625 18.175l-1.264 1.263a.329.329 0 01-.466 0L1.473 4.016a.329.329 0 010-.466l1.263-1.264a.329.329 0 01.466 0l15.423 15.423a.329.329 0 010 .466z" fill="#c83131"/></g></symbol><symbol id="icon-ball_penalty" viewBox="0 0 20 20"><g clip-path="url(#a)"><path d="M0 9.984c0 5.519 4.481 10 10 10s10-4.481 10-10c0-5.52-4.481-10-10-10s-10 4.48-10 10zm7.53-.219l-2.318 2.106 1.045 3.951 3.165 1.097 3.102-2.884-1.189-2.935L7.53 9.765zM3.199 4.091a8.987 8.987 0 016.184-3.087l.145.771-3.421 3.601-2.167.122-.741-1.407zm4.466 4.661L6.95 5.939l3.189-3.355c.69.059 1.514.275 2.353.646.381.169.737.357 1.06.557l.336 4.472-2.181 1.911-4.042-1.418zM2.529 4.966A8.949 8.949 0 001.001 9.86l1.128-.335.883-3.643-.483-.916zM1.045 10.89a8.99 8.99 0 003.473 6.229l.768-1.06-1.081-4.083-1.694-1.521-1.466.435zm9.161 8.091a8.975 8.975 0 006.404-2.893l-.845-1.485-2.387.004-3.34 3.104.168 1.27zm8.701-10.296a8.985 8.985 0 00-2.935-5.432l-1.407.668.315 4.195 2.135 1.662 1.892-1.093zm.091 1.103l.002.196a8.96 8.96 0 01-1.71 5.276l-.712-1.25.997-3.401 1.423-.821z" fill-rule="evenodd"/><path fill="#FFF" d="M0 10.391h8.922v3.707H0z"/><path fill="#FFF" d="M.363 11.919h10.701v8.064H.363z"/><text transform="translate(.754 21.726)" font-family="Franklin Gothic Heavy" font-weight="400" font-size="14" fill="#009688" stroke="#fff" stroke-width=".5">P</text></g></symbol><symbol id="icon-book" viewBox="0 0 16 16"><path fill-rule="evenodd" d="M3 5h4v1H3V5zm0 3h4V7H3v1zm0 2h4V9H3v1zm11-5h-4v1h4V5zm0 2h-4v1h4V7zm0 2h-4v1h4V9zm2-6v9c0 .55-.45 1-1 1H9.5l-1 1-1-1H2c-.55 0-1-.45-1-1V3c0-.55.45-1 1-1h5.5l1 1 1-1H15c.55 0 1 .45 1 1zm-8 .5L7.5 3H2v9h6V3.5zm7-.5H9.5l-.5.5V12h6V3z"/></symbol><symbol id="icon-calendar" viewBox="0 0 32 32"><path d="M2 6v24h28V6zm0 9h28M7 3v6m6-6v6m6-6v6m6-6v6"/></symbol><symbol id="icon-card_r" viewBox="0 0 20 20"><g clip-path="url(#a)"><path fill="#F44336" d="M4 1.5h12v17H4z"/></g></symbol><symbol id="icon-card_y" viewBox="0 0 20 20"><g clip-path="url(#a)"><path fill="#FFEB3B" d="M4 1.5h12v17H4z"/></g></symbol><symbol id="icon-card_yr" viewBox="0 0 20 20"><g clip-path="url(#a)"><path fill="#FFEB3B" d="M1 3h12v17H1z"/><path fill="#F44336" d="M7 0h12v17H7z"/></g></symbol><symbol id="icon-caret-bottom" viewBox="0 0 32 32"><path d="M30 10L16 26 2 10z"/></symbol><symbol id="icon-caret-left" viewBox="0 0 32 32"><path d="M22 30L6 16 22 2z"/></symbol><symbol id="icon-caret-right" viewBox="0 0 32 32"><path d="M10 30l16-14L10 2z"/></symbol><symbol id="icon-caret-top" viewBox="0 0 32 32"><path d="M30 22L16 6 2 22z"/></symbol><symbol id="icon-checklist" viewBox="0 0 16 16"><path fill-rule="evenodd" d="M16 8.5l-6 6-3-3L8.5 10l1.5 1.5L14.5 7 16 8.5zM5.7 12.2l.8.8H2c-.55 0-1-.45-1-1V3c0-.55.45-1 1-1h7c.55 0 1 .45 1 1v6.5l-.8-.8c-.39-.39-1.03-.39-1.42 0L5.7 10.8a.996.996 0 000 1.41v-.01zM4 4h5V3H4v1zm0 2h5V5H4v1zm0 2h3V7H4v1zM3 9H2v1h1V9zm0-2H2v1h1V7zm0-2H2v1h1V5zm0-2H2v1h1V3z"/></symbol><symbol id="icon-chevron-bottom" viewBox="0 0 32 32"><path d="M30 12L16 24 2 12"/></symbol><symbol id="icon-chevron-left" viewBox="0 0 32 32"><path d="M20 30L8 16 20 2"/></symbol><symbol id="icon-chevron-right" viewBox="0 0 32 32"><path d="M12 30l12-14L12 2"/></symbol><symbol id="icon-chevron-top" viewBox="0 0 32 32"><path d="M30 20L16 8 2 20"/></symbol><symbol id="icon-clock" viewBox="0 0 14 16"><path fill-rule="evenodd" d="M8 8h3v2H7c-.55 0-1-.45-1-1V4h2v4zM7 2.3c3.14 0 5.7 2.56 5.7 5.7s-2.56 5.7-5.7 5.7A5.71 5.71 0 011.3 8c0-3.14 2.56-5.7 5.7-5.7zM7 1C3.14 1 0 4.14 0 8s3.14 7 7 7 7-3.14 7-7-3.14-7-7-7z"/></symbol><symbol id="icon-close" viewBox="0 0 32 32"><path d="M2 30L30 2m0 28L2 2"/></symbol><symbol id="icon-comment" viewBox="0 0 16 16"><path fill-rule="evenodd" d="M14 1H2c-.55 0-1 .45-1 1v8c0 .55.45 1 1 1h2v3.5L7.5 11H14c.55 0 1-.45 1-1V2c0-.55-.45-1-1-1zm0 9H7l-2 2v-2H2V2h12v8z"/></symbol><symbol id="icon-compose" viewBox="0 0 32 32"><path d="M27 15v15H2V5h15m13 1l-4-4L9 19l-2 6 6-2zm-8 0l4 4zM9 19l4 4z"/></symbol><symbol id="icon-database" viewBox="0 0 12 16"><path fill-rule="evenodd" d="M6 15c-3.31 0-6-.9-6-2v-2c0-.17.09-.34.21-.5.67.86 3 1.5 5.79 1.5s5.12-.64 5.79-1.5c.13.16.21.33.21.5v2c0 1.1-2.69 2-6 2zm0-4c-3.31 0-6-.9-6-2V7c0-.11.04-.21.09-.31.03-.06.07-.13.12-.19C.88 7.36 3.21 8 6 8s5.12-.64 5.79-1.5c.05.06.09.13.12.19.05.1.09.21.09.31v2c0 1.1-2.69 2-6 2zm0-4c-3.31 0-6-.9-6-2V3c0-1.1 2.69-2 6-2s6 .9 6 2v2c0 1.1-2.69 2-6 2zm0-5c-2.21 0-4 .45-4 1s1.79 1 4 1 4-.45 4-1-1.79-1-4-1z"/></symbol><symbol id="icon-device-camera" viewBox="0 0 16 16"><path fill-rule="evenodd" d="M15 3H7c0-.55-.45-1-1-1H2c-.55 0-1 .45-1 1-.55 0-1 .45-1 1v9c0 .55.45 1 1 1h14c.55 0 1-.45 1-1V4c0-.55-.45-1-1-1zM6 5H2V4h4v1zm4.5 7C8.56 12 7 10.44 7 8.5S8.56 5 10.5 5 14 6.56 14 8.5 12.44 12 10.5 12zM13 8.5c0 1.38-1.13 2.5-2.5 2.5S8 9.87 8 8.5 9.13 6 10.5 6 13 7.13 13 8.5z"/></symbol><symbol id="icon-edit" viewBox="0 0 32 32"><path d="M30 7l-5-5L5 22l-2 7 7-2zm-9-1l5 5zM5 22l5 5z"/></symbol><symbol id="icon-export" viewBox="0 0 32 32"><path d="M28 22v8H4v-8M16 4v20M8 12l8-8 8 8"/></symbol><symbol id="icon-eye-off" viewBox="0 0 24 24"><path d="M17.94 17.94A10.07 10.07 0 0112 20c-7 0-11-8-11-8a18.45 18.45 0 015.06-5.94M9.9 4.24A9.12 9.12 0 0112 4c7 0 11 8 11 8a18.5 18.5 0 01-2.16 3.19m-6.72-1.07a3 3 0 11-4.24-4.24M1 1l22 22"/></symbol><symbol id="icon-eye" viewBox="0 0 16 16"><path fill-rule="evenodd" d="M8.06 2C3 2 0 8 0 8s3 6 8.06 6C13 14 16 8 16 8s-3-6-7.94-6zM8 12c-2.2 0-4-1.78-4-4 0-2.2 1.8-4 4-4 2.22 0 4 1.8 4 4 0 2.22-1.78 4-4 4zm2-4c0 1.11-.89 2-2 2-1.11 0-2-.89-2-2 0-1.11.89-2 2-2 1.11 0 2 .89 2 2z"/></symbol><symbol id="icon-gear" viewBox="0 0 14 16"><path fill-rule="evenodd" d="M14 8.77v-1.6l-1.94-.64-.45-1.09.88-1.84-1.13-1.13-1.81.91-1.09-.45-.69-1.92h-1.6l-.63 1.94-1.11.45-1.84-.88-1.13 1.13.91 1.81-.45 1.09L0 7.23v1.59l1.94.64.45 1.09-.88 1.84 1.13 1.13 1.81-.91 1.09.45.69 1.92h1.59l.63-1.94 1.11-.45 1.84.88 1.13-1.13-.92-1.81.47-1.09L14 8.75v.02zM7 11c-1.66 0-3-1.34-3-3s1.34-3 3-3 3 1.34 3 3-1.34 3-3 3z"/></symbol><symbol id="icon-git-compare" viewBox="0 0 14 16"><path fill-rule="evenodd" d="M5 12H4c-.27-.02-.48-.11-.69-.31-.21-.2-.3-.42-.31-.69V4.72A1.993 1.993 0 002 1a1.993 1.993 0 00-1 3.72V11c.03.78.34 1.47.94 2.06.6.59 1.28.91 2.06.94h1v2l3-3-3-3v2zM2 1.8c.66 0 1.2.55 1.2 1.2 0 .65-.55 1.2-1.2 1.2C1.35 4.2.8 3.65.8 3c0-.65.55-1.2 1.2-1.2zm11 9.48V5c-.03-.78-.34-1.47-.94-2.06-.6-.59-1.28-.91-2.06-.94H9V0L6 3l3 3V4h1c.27.02.48.11.69.31.21.2.3.42.31.69v6.28A1.993 1.993 0 0012 15a1.993 1.993 0 001-3.72zm-1 2.92c-.66 0-1.2-.55-1.2-1.2 0-.65.55-1.2 1.2-1.2.65 0 1.2.55 1.2 1.2 0 .65-.55 1.2-1.2 1.2z"/></symbol><symbol id="icon-grabber" viewBox="0 0 8 16"><path fill-rule="evenodd" d="M8 4v1H0V4h8zM0 8h8V7H0v1zm0 3h8v-1H0v1z"/></symbol><symbol id="icon-graph" viewBox="0 0 16 16"><path fill-rule="evenodd" d="M16 14v1H0V0h1v14h15zM5 13H3V8h2v5zm4 0H7V3h2v10zm4 0h-2V6h2v7z"/></symbol><symbol id="icon-history" viewBox="0 0 14 16"><path fill-rule="evenodd" d="M8 13H6V6h5v2H8v5zM7 1C4.81 1 2.87 2.02 1.59 3.59L0 2v4h4L2.5 4.5C3.55 3.17 5.17 2.3 7 2.3c3.14 0 5.7 2.56 5.7 5.7s-2.56 5.7-5.7 5.7A5.71 5.71 0 011.3 8c0-.34.03-.67.09-1H.08C.03 7.33 0 7.66 0 8c0 3.86 3.14 7 7 7s7-3.14 7-7-3.14-7-7-7z"/></symbol><symbol id="icon-import" viewBox="0 0 32 32"><path d="M28 22v8H4v-8M16 4v20m-8-8l8 8 8-8"/></symbol><symbol id="icon-info" viewBox="0 0 14 16"><path fill-rule="evenodd" d="M6.3 5.69a.942.942 0 01-.28-.7c0-.28.09-.52.28-.7.19-.18.42-.28.7-.28.28 0 .52.09.7.28.18.19.28.42.28.7 0 .28-.09.52-.28.7a1 1 0 01-.7.3c-.28 0-.52-.11-.7-.3zM8 7.99c-.02-.25-.11-.48-.31-.69-.2-.19-.42-.3-.69-.31H6c-.27.02-.48.13-.69.31-.2.2-.3.44-.31.69h1v3c.02.27.11.5.31.69.2.2.42.31.69.31h1c.27 0 .48-.11.69-.31.2-.19.3-.42.31-.69H8V7.98v.01zM7 2.3c-3.14 0-5.7 2.54-5.7 5.68 0 3.14 2.56 5.7 5.7 5.7s5.7-2.55 5.7-5.7c0-3.15-2.56-5.69-5.7-5.69v.01zM7 .98c3.86 0 7 3.14 7 7s-3.14 7-7 7-7-3.12-7-7 3.14-7 7-7z"/></symbol><symbol id="icon-issue-opened" viewBox="0 0 14 16"><path fill-rule="evenodd" d="M7 2.3c3.14 0 5.7 2.56 5.7 5.7s-2.56 5.7-5.7 5.7A5.71 5.71 0 011.3 8c0-3.14 2.56-5.7 5.7-5.7zM7 1C3.14 1 0 4.14 0 8s3.14 7 7 7 7-3.14 7-7-3.14-7-7-7zm1 3H6v5h2V4zm0 6H6v2h2v-2z"/></symbol><symbol id="icon-jersey" viewBox="0 0 14 16"><path fill-rule="evenodd" d="M4.5 6l-.5.5v5l.5.5h2l.5-.5v-5L6.5 6h-2zM6 11H5V7h1v4zm6.27-7.25C12.05 2.37 11.96 1.12 12 0H9.02c0 .27-.13.48-.39.69-.25.2-.63.3-1.13.3-.5 0-.88-.09-1.13-.3-.23-.2-.36-.42-.36-.69H3c.05 1.13-.03 2.38-.25 3.75C2.55 5.13 1.95 5.88 1 6v9c.02.27.11.48.31.69.2.21.42.3.69.31h11c.27-.02.48-.11.69-.31.21-.2.3-.42.31-.69V6c-.95-.13-1.53-.88-1.75-2.25h.02zM13 15H2V7c.89-.5 1.48-1.25 1.72-2.25S4.03 2.5 4 1h1c-.02.78.16 1.47.52 2.06.36.58 1.02.89 2 .94.98-.02 1.64-.33 2-.94.36-.59.5-1.28.48-2.06h1c.02 1.42.13 2.55.33 3.38.2.81.69 2 1.67 2.63v8V15zM8.5 6l-.5.5v5l.5.5h2l.5-.5v-5l-.5-.5h-2zm1.5 5H9V7h1v4z"/></symbol><symbol id="icon-key" viewBox="0 0 14 16"><path fill-rule="evenodd" d="M12.83 2.17C12.08 1.42 11.14 1.03 10 1c-1.13.03-2.08.42-2.83 1.17S6.04 3.86 6.01 5c0 .3.03.59.09.89L0 12v1l1 1h2l1-1v-1h1v-1h1v-1h2l1.09-1.11c.3.08.59.11.91.11 1.14-.03 2.08-.42 2.83-1.17S13.97 6.14 14 5c-.03-1.14-.42-2.08-1.17-2.83zM11 5.38c-.77 0-1.38-.61-1.38-1.38 0-.77.61-1.38 1.38-1.38.77 0 1.38.61 1.38 1.38 0 .77-.61 1.38-1.38 1.38z"/></symbol><symbol id="icon-law" viewBox="0 0 24 24"><path fill-rule="evenodd" d="M12.75 2.75a.75.75 0 00-1.5 0V4.5H9.276a1.75 1.75 0 00-.985.303L6.596 5.957A.25.25 0 016.455 6H2.353a.75.75 0 100 1.5H3.93L.563 15.18a.762.762 0 00.21.88c.08.064.161.125.309.221.186.121.452.278.792.433.68.311 1.662.62 2.876.62a6.919 6.919 0 002.876-.62c.34-.155.606-.312.792-.433.15-.097.23-.158.31-.223a.75.75 0 00.209-.878L5.569 7.5h.886c.351 0 .694-.106.984-.303l1.696-1.154A.25.25 0 019.275 6h1.975v14.5H6.763a.75.75 0 000 1.5h10.474a.75.75 0 000-1.5H12.75V6h1.974c.05 0 .1.015.14.043l1.697 1.154c.29.197.633.303.984.303h.886l-3.368 7.68a.75.75 0 00.23.896c.012.009 0 0 .002 0a3.154 3.154 0 00.31.206c.185.112.45.256.79.4a7.343 7.343 0 002.855.568 7.343 7.343 0 002.856-.569c.338-.143.604-.287.79-.399a3.5 3.5 0 00.31-.206.75.75 0 00.23-.896L20.07 7.5h1.578a.75.75 0 000-1.5h-4.102a.25.25 0 01-.14-.043l-1.697-1.154a1.75 1.75 0 00-.984-.303H12.75V2.75zM2.193 15.198a5.418 5.418 0 002.557.635 5.418 5.418 0 002.557-.635L4.75 9.368l-2.557 5.83zm14.51-.024c.082.04.174.083.275.126.53.223 1.305.45 2.272.45a5.846 5.846 0 002.547-.576L19.25 9.367l-2.547 5.807z"/></symbol><symbol id="icon-light-bulb" viewBox="0 0 12 16"><path fill-rule="evenodd" d="M6.5 0C3.48 0 1 2.19 1 5c0 .92.55 2.25 1 3 1.34 2.25 1.78 2.78 2 4v1h5v-1c.22-1.22.66-1.75 2-4 .45-.75 1-2.08 1-3 0-2.81-2.48-5-5.5-5zm3.64 7.48c-.25.44-.47.8-.67 1.11-.86 1.41-1.25 2.06-1.45 3.23-.02.05-.02.11-.02.17H5c0-.06 0-.13-.02-.17-.2-1.17-.59-1.83-1.45-3.23-.2-.31-.42-.67-.67-1.11C2.44 6.78 2 5.65 2 5c0-2.2 2.02-4 4.5-4 1.22 0 2.36.42 3.22 1.19C10.55 2.94 11 3.94 11 5c0 .66-.44 1.78-.86 2.48zM4 14h5c-.23 1.14-1.3 2-2.5 2s-2.27-.86-2.5-2z"/></symbol><symbol id="icon-link-external" viewBox="0 0 24 24"><path d="M15.5 2.25a.75.75 0 01.75-.75h5.5a.75.75 0 01.75.75v5.5a.75.75 0 01-1.5 0V4.06l-6.22 6.22a.75.75 0 11-1.06-1.06L19.94 3h-3.69a.75.75 0 01-.75-.75z"/><path d="M2.5 4.25c0-.966.784-1.75 1.75-1.75h8.5a.75.75 0 010 1.5h-8.5a.25.25 0 00-.25.25v15.5c0 .138.112.25.25.25h15.5a.25.25 0 00.25-.25v-8.5a.75.75 0 011.5 0v8.5a1.75 1.75 0 01-1.75 1.75H4.25a1.75 1.75 0 01-1.75-1.75V4.25z"/></symbol><symbol id="icon-menu" viewBox="0 0 32 32"><path d="M4 8h24M4 16h24M4 24h24"/></symbol><symbol id="icon-mirror" viewBox="0 0 16 16"><path fill-rule="evenodd" d="M15.5 4.7L8.5 0l-7 4.7c-.3.19-.5.45-.5.8V16l7.5-4 7.5 4V5.5c0-.34-.2-.61-.5-.8zm-.5 9.8l-6-3.25V10H8v1.25L2 14.5v-9l6-4V6h1V1.5l6 4v9zM6 7h5V5l3 3-3 3V9H6v2L3 8l3-3v2z"/></symbol><symbol id="icon-note" viewBox="0 0 14 16"><path fill-rule="evenodd" d="M3 10h4V9H3v1zm0-2h6V7H3v1zm0-2h8V5H3v1zm10 6H1V3h12v9zM1 2c-.55 0-1 .45-1 1v9c0 .55.45 1 1 1h12c.55 0 1-.45 1-1V3c0-.55-.45-1-1-1H1z"/></symbol><symbol id="icon-options" viewBox="0 0 32 32"><path d="M28 6H4m24 10H4m24 10H4M24 3v6M8 13v6m12 4v6"/></symbol><symbol id="icon-organization" viewBox="0 0 16 16"><path fill-rule="evenodd" d="M16 12.999c0 .439-.45 1-1 1H7.995c-.539 0-.994-.447-.995-.999H1c-.54 0-1-.561-1-1 0-2.634 3-4 3-4s.229-.409 0-1c-.841-.621-1.058-.59-1-3 .058-2.419 1.367-3 2.5-3s2.442.58 2.5 3c.058 2.41-.159 2.379-1 3-.229.59 0 1 0 1s1.549.711 2.42 2.088C9.196 9.369 10 8.999 10 8.999s.229-.409 0-1c-.841-.62-1.058-.59-1-3 .058-2.419 1.367-3 2.5-3s2.437.581 2.495 3c.059 2.41-.158 2.38-1 3-.229.59 0 1 0 1s3.005 1.366 3.005 4z"/></symbol><symbol id="icon-pencil" viewBox="0 0 14 16"><path fill-rule="evenodd" d="M0 12v3h3l8-8-3-3-8 8zm3 2H1v-2h1v1h1v1zm10.3-9.3L12 6 9 3l1.3-1.3a.996.996 0 011.41 0l1.59 1.59c.39.39.39 1.02 0 1.41z"/></symbol><symbol id="icon-person-outline" viewBox="0 0 512 512"><path d="M344 144c-3.92 52.87-44 96-88 96s-84.15-43.12-88-96c-4-55 35-96 88-96s92 42 88 96z" fill="none" stroke="currentColor" stroke-linecap="round" stroke-linejoin="round" stroke-width="32"/><path d="M256 304c-87 0-175.3 48-191.64 138.6C62.39 453.52 68.57 464 80 464h352c11.44 0 17.62-10.48 15.65-21.4C431.3 352 343 304 256 304z" fill="none" stroke="currentColor" stroke-miterlimit="10" stroke-width="32"/></symbol><symbol id="icon-plus" viewBox="0 0 12 16"><path fill-rule="evenodd" d="M12 9H7v5H5V9H0V7h5V2h2v5h5v2z"/></symbol><symbol id="icon-pulse" viewBox="0 0 14 16"><path fill-rule="evenodd" d="M11.5 8L8.8 5.4 6.6 8.5 5.5 1.6 2.38 8H0v2h3.6l.9-1.8.9 5.4L9 8.5l1.6 1.5H14V8h-2.5z"/></symbol><symbol id="icon-question" viewBox="0 0 14 16"><path fill-rule="evenodd" d="M6 10h2v2H6v-2zm4-3.5C10 8.64 8 9 8 9H6c0-.55.45-1 1-1h.5c.28 0 .5-.22.5-.5v-1c0-.28-.22-.5-.5-.5h-1c-.28 0-.5.22-.5.5V7H4c0-1.5 1.5-3 3-3s3 1 3 2.5zM7 2.3c3.14 0 5.7 2.56 5.7 5.7s-2.56 5.7-5.7 5.7A5.71 5.71 0 011.3 8c0-3.14 2.56-5.7 5.7-5.7zM7 1C3.14 1 0 4.14 0 8s3.14 7 7 7 7-3.14 7-7-3.14-7-7-7z"/></symbol><symbol id="icon-reload-outline" viewBox="0 0 512 512"><path d="M400 148l-21.12-24.57A191.43 191.43 0 00240 64C134 64 48 150 48 256s86 192 192 192a192.09 192.09 0 00181.07-128" fill="none" stroke="currentColor" stroke-linecap="round" stroke-miterlimit="10" stroke-width="32"/><path d="M464 97.42V208a16 16 0 01-16 16H337.42c-14.26 0-21.4-17.23-11.32-27.31L436.69 86.1C446.77 76 464 83.16 464 97.42z"/></symbol><symbol id="icon-repo-forked" viewBox="0 0 10 16"><path fill-rule="evenodd" d="M8 1a1.993 1.993 0 00-1 3.72V6L5 8 3 6V4.72A1.993 1.993 0 002 1a1.993 1.993 0 00-1 3.72V6.5l3 3v1.78A1.993 1.993 0 005 15a1.993 1.993 0 001-3.72V9.5l3-3V4.72A1.993 1.993 0 008 1zM2 4.2C1.34 4.2.8 3.65.8 3c0-.65.55-1.2 1.2-1.2.65 0 1.2.55 1.2 1.2 0 .65-.55 1.2-1.2 1.2zm3 10c-.66 0-1.2-.55-1.2-1.2 0-.65.55-1.2 1.2-1.2.65 0 1.2.55 1.2 1.2 0 .65-.55 1.2-1.2 1.2zm3-10c-.66 0-1.2-.55-1.2-1.2 0-.65.55-1.2 1.2-1.2.65 0 1.2.55 1.2 1.2 0 .65-.55 1.2-1.2 1.2z"/></symbol><symbol id="icon-repo-push" viewBox="0 0 12 16"><path fill-rule="evenodd" d="M4 3H3V2h1v1zM3 5h1V4H3v1zm4 0L4 9h2v7h2V9h2L7 5zm4-5H1C.45 0 0 .45 0 1v12c0 .55.45 1 1 1h4v-1H1v-2h4v-1H2V1h9.02L11 10H9v1h2v2H9v1h2c.55 0 1-.45 1-1V1c0-.55-.45-1-1-1z"/></symbol><symbol id="icon-save" viewBox="0 0 24 24"><path d="M19 21H5a2 2 0 01-2-2V5a2 2 0 012-2h11l5 5v11a2 2 0 01-2 2z"/><path d="M17 21v-8H7v8M7 3v5h8"/></symbol><symbol id="icon-server" viewBox="0 0 12 16"><path fill-rule="evenodd" d="M11 6H1c-.55 0-1 .45-1 1v2c0 .55.45 1 1 1h10c.55 0 1-.45 1-1V7c0-.55-.45-1-1-1zM2 9H1V7h1v2zm2 0H3V7h1v2zm2 0H5V7h1v2zm2 0H7V7h1v2zm3-8H1c-.55 0-1 .45-1 1v2c0 .55.45 1 1 1h10c.55 0 1-.45 1-1V2c0-.55-.45-1-1-1zM2 4H1V2h1v2zm2 0H3V2h1v2zm2 0H5V2h1v2zm2 0H7V2h1v2zm3-1h-1V2h1v1zm0 8H1c-.55 0-1 .45-1 1v2c0 .55.45 1 1 1h10c.55 0 1-.45 1-1v-2c0-.55-.45-1-1-1zm-9 3H1v-2h1v2zm2 0H3v-2h1v2zm2 0H5v-2h1v2zm2 0H7v-2h1v2z"/></symbol><symbol id="icon-settings" viewBox="0 0 32 32"><path d="M13 2v4l-2 1-3-3-4 4 3 3-1 2H2v6h4l1 2-3 3 4 4 3-3 2 1v4h6v-4l2-1 3 3 4-4-3-3 1-2h4v-6h-4l-1-2 3-3-4-4-3 3-2-1V2z"/><circle cx="16" cy="16" r="4"/></symbol><symbol id="icon-shirt" viewBox="0 0 45 40"><path d="M1 5.136L7.374.889C18.61 5.817 25.22 5.776 37.55.889L44 5.136v10.617l-6.45-2.123V39.11H7.374V13.63L1 15.753V5.136z" fill="#fff"/></symbol><symbol id="icon-star" viewBox="0 0 14 16"><path fill-rule="evenodd" d="M14 6l-4.9-.64L7 1 4.9 5.36 0 6l3.6 3.26L2.67 14 7 11.67 11.33 14l-.93-4.74L14 6z"/></symbol><symbol id="icon-substitute" viewBox="0 0 10 10"><path fill-rule="evenodd" clip-rule="evenodd" d="M3.5 4V0h-2v4H0l2.5 6L5 4H3.5z" fill="#F44336"/><path fill-rule="evenodd" clip-rule="evenodd" d="M6.5 6v4h2V6H10L7.5 0 5 6h1.5z" fill="#439328"/></symbol><symbol id="icon-text-size" viewBox="0 0 18 16"><path fill-rule="evenodd" d="M13.62 9.08L12.1 3.66h-.06l-1.5 5.42h3.08zM5.7 10.13S4.68 6.52 4.53 6.02h-.08l-1.13 4.11H5.7zM17.31 14h-2.25l-.95-3.25h-4.07L9.09 14H6.84l-.69-2.33H2.87L2.17 14H0l3.3-9.59h2.5l2.17 6.34L10.86 2h2.52l3.94 12h-.01z"/></symbol><symbol id="icon-tools" viewBox="0 0 16 16"><path fill-rule="evenodd" d="M4.48 7.27c.26.26 1.28 1.33 1.28 1.33l.56-.58-.88-.91 1.69-1.8s-.76-.74-.43-.45c.32-1.19.03-2.51-.87-3.44C4.93.5 3.66.2 2.52.51l1.93 2-.51 1.96-1.89.52-1.93-2C-.19 4.17.1 5.48 1 6.4c.94.98 2.29 1.26 3.48.87zm6.44 1.94l-2.33 2.3 3.84 3.98c.31.33.73.49 1.14.49.41 0 .82-.16 1.14-.49.63-.65.63-1.7 0-2.35l-3.79-3.93zM16 2.53L13.55 0 6.33 7.46l.88.91-4.31 4.46-.99.53-1.39 2.27.35.37 2.2-1.44.51-1.02L7.9 9.08l.88.91L16 2.53z"/></symbol><symbol id="icon-trash" viewBox="0 0 32 32"><path d="M28 6H6l2 24h16l2-24H4m12 6v12m5-12l-1 12m-9-12l1 12m0-18l1-4h6l1 4"/></symbol><symbol id="icon-trophy-outline" viewBox="0 0 512 512"><path fill="none" stroke="currentColor" stroke-linecap="round" stroke-linejoin="round" stroke-width="32" d="M176 464h160m-80 0V336m128-112c0-50.64-.08-134.63-.12-160a16 16 0 00-16-16l-223.79.26a16 16 0 00-16 15.95c0 30.58-.13 129.17-.13 159.79 0 64.28 83 112 128 112S384 288.28 384 224z"/><path d="M128 96H48v16c0 55.22 33.55 112 80 112M384 96h80v16c0 55.22-33.55 112-80 112" fill="none" stroke="currentColor" stroke-linecap="round" stroke-linejoin="round" stroke-width="32"/></symbol><symbol id="icon-watch" viewBox="0 0 12 16"><path fill-rule="evenodd" d="M6 8h2v1H5V5h1v3zm6 0c0 2.22-1.2 4.16-3 5.19V15c0 .55-.45 1-1 1H4c-.55 0-1-.45-1-1v-1.81C1.2 12.16 0 10.22 0 8s1.2-4.16 3-5.19V1c0-.55.45-1 1-1h4c.55 0 1 .45 1 1v1.81c1.8 1.03 3 2.97 3 5.19zm-1 0c0-2.77-2.23-5-5-5S1 5.23 1 8s2.23 5 5 5 5-2.23 5-5z"/></symbol><symbol id="icon-x" viewBox="0 0 12 16"><path fill-rule="evenodd" d="M7.48 8l3.75 3.75-1.48 1.48L6 9.48l-3.75 3.75-1.48-1.48L4.52 8 .77 4.25l1.48-1.48L6 6.52l3.75-3.75 1.48 1.48L7.48 8z"/></symbol></svg>