<?xml version="1.0" encoding="utf-8"?>
<!-- Generator: Adobe Illustrator 22.0.0, SVG Export Plug-In . SVG Version: 6.00 Build 0)  -->
<svg version="1.1" id="Layer_1" xmlns="http://www.w3.org/2000/svg" xmlns:xlink="http://www.w3.org/1999/xlink" x="0px" y="0px"
	 viewBox="0 0 408.2 169.8" style="enable-background:new 0 0 408.2 169.8;" xml:space="preserve">
<style type="text/css">
	.st0{fill:#FFFFFF;}
	.st1{fill:none;stroke:#C6C6C6;stroke-miterlimit:10;}
	.st2{fill:#C6C6C6;}
	.st3{opacity:0.3;}
	.st4{fill:#3C3C3B;}
	.st5{fill:none;stroke:#FFFFFF;stroke-width:0.4365;stroke-miterlimit:10;}
	.st6{fill:none;stroke:#FFFFFF;stroke-width:0.4358;stroke-miterlimit:10;}
	.st7{fill:none;stroke:#FFFFFF;stroke-width:0.4352;stroke-miterlimit:10;}
	.st8{fill:none;}
	.st9{fill:none;stroke:#FFFFFF;stroke-width:0.4374;stroke-miterlimit:10;}
	.st10{opacity:0.62;fill:#ECECEC;}
	.st11{fill:none;stroke:#FFFFFF;stroke-width:0.3171;stroke-miterlimit:10;}
	.st12{fill:none;stroke:#FFFFFF;stroke-width:0.348;stroke-miterlimit:10;}
	.st13{fill:#575756;}
	.st14{fill:#868686;}
	.st15{fill:#6F6F6E;}
	.st16{fill:#F9BA24;}
	.st17{fill:#6941E0;}
	.st18{fill:none;stroke:#FFFFFF;stroke-width:0.3365;stroke-miterlimit:10;}
	.st19{fill:none;stroke:#FFFFFF;stroke-width:0.336;stroke-miterlimit:10;}
	.st20{fill:none;stroke:#FFFFFF;stroke-width:0.3355;stroke-miterlimit:10;}
	.st21{fill:none;stroke:#FFFFFF;stroke-width:0.3372;stroke-miterlimit:10;}
	.st22{fill:none;stroke:#FFFFFF;stroke-width:0.5824;stroke-miterlimit:10;}
	.st23{opacity:0.62;fill:#C4C2C2;}
	.st24{fill:none;stroke:#FFFFFF;stroke-width:0.4871;stroke-miterlimit:10;}
	.st25{fill:none;stroke:#FFFFFF;stroke-width:0.6078;stroke-miterlimit:10;}
	.st26{fill:none;stroke:#FFFFFF;stroke-width:0.2234;stroke-miterlimit:10;}
	.st27{fill:#E8E8E8;}
	.st28{fill:none;stroke:#FFFFFF;stroke-width:0.3824;stroke-miterlimit:10;}
	.st29{fill:none;stroke:#FFFFFF;stroke-width:0.3818;stroke-miterlimit:10;}
	.st30{fill:none;stroke:#FFFFFF;stroke-width:0.3813;stroke-miterlimit:10;}
	.st31{fill:none;stroke:#FFFFFF;stroke-width:0.3832;stroke-miterlimit:10;}
	.st32{fill:none;stroke:#FFFFFF;stroke-width:0.257;stroke-miterlimit:10;}
	.st33{fill:none;stroke:#FFFFFF;stroke-width:0.6653;stroke-miterlimit:10;}
	.st34{fill:#7B6CEA;}
	.st35{fill:#DADADA;}
	.st36{fill:none;stroke:#C6C6C6;stroke-width:0.5;stroke-miterlimit:10;}
	.st37{fill:none;stroke:#7B6CEA;stroke-miterlimit:10;}
	.st38{fill:#878787;}
	.st39{fill:#9D9D9C;}
	.st40{fill:#A6CE39;}
	.st41{filter:url(#Adobe_OpacityMaskFilter);}
	.st42{opacity:0.7;mask:url(#SVGID_1_);}
	.st43{fill:#FFCB08;}
	.st44{fill:#ED1651;}
	.st45{filter:url(#Adobe_OpacityMaskFilter_1_);}
	.st46{mask:url(#SVGID_2_);}
	.st47{fill:#00AEEF;}
	.st48{fill:#42ABED;}
	.st49{fill:#58585A;}
	.st50{fill:none;stroke:#7B6CEA;stroke-width:0.348;stroke-miterlimit:10;}
	.st51{fill:#ACACAD;}
	.st52{fill:none;stroke:#FFFFFF;stroke-width:0.5;stroke-miterlimit:10;}
	.st53{filter:url(#Adobe_OpacityMaskFilter_2_);}
	.st54{opacity:0.7;mask:url(#SVGID_3_);}
	.st55{filter:url(#Adobe_OpacityMaskFilter_3_);}
	.st56{mask:url(#SVGID_4_);}
	.st57{fill:#B2B2B2;}
	.st58{filter:url(#Adobe_OpacityMaskFilter_4_);}
	.st59{opacity:0.7;mask:url(#SVGID_5_);}
	.st60{filter:url(#Adobe_OpacityMaskFilter_5_);}
	.st61{mask:url(#SVGID_6_);}
	.st62{filter:url(#Adobe_OpacityMaskFilter_6_);}
	.st63{opacity:0.7;mask:url(#SVGID_7_);}
	.st64{filter:url(#Adobe_OpacityMaskFilter_7_);}
	.st65{mask:url(#SVGID_8_);}
	.st66{fill:none;stroke:#C6C6C6;stroke-width:0.9721;stroke-miterlimit:10;}
	.st67{fill:none;stroke:#FFFFFF;stroke-width:0.4243;stroke-miterlimit:10;}
	.st68{fill:none;stroke:#FFFFFF;stroke-width:0.4237;stroke-miterlimit:10;}
	.st69{fill:none;stroke:#FFFFFF;stroke-width:0.423;stroke-miterlimit:10;}
	.st70{fill:none;stroke:#FFFFFF;stroke-width:0.4252;stroke-miterlimit:10;}
	.st71{fill:none;stroke:#FFFFFF;stroke-width:2;stroke-miterlimit:10;}
	.st72{fill:none;stroke:#7B6CEA;stroke-width:0.75;stroke-miterlimit:10;}
	.st73{fill:none;stroke:#C6C6C6;stroke-width:1.622;stroke-miterlimit:10;}
	.st74{fill:none;stroke:#C6C6C6;stroke-width:0.811;stroke-miterlimit:10;}
	.st75{fill:none;stroke:#7B6CEA;stroke-width:1.622;stroke-miterlimit:10;}
	.st76{fill:none;stroke:#C6C6C6;stroke-width:1.5767;stroke-miterlimit:10;}
	.st77{fill:none;stroke:#FFFFFF;stroke-width:0.6882;stroke-miterlimit:10;}
	.st78{fill:none;stroke:#FFFFFF;stroke-width:0.6872;stroke-miterlimit:10;}
	.st79{fill:none;stroke:#FFFFFF;stroke-width:0.6862;stroke-miterlimit:10;}
	.st80{fill:none;stroke:#FFFFFF;stroke-width:0.6897;stroke-miterlimit:10;}
	.st81{fill:none;stroke:#FFFFFF;stroke-width:3.244;stroke-miterlimit:10;}
	.st82{fill:none;stroke:#FFFFFF;stroke-width:0.811;stroke-miterlimit:10;}
	.st83{fill:none;stroke:#7B6CEA;stroke-width:1.2165;stroke-miterlimit:10;}
	.st84{fill:none;stroke:#C6C6C6;stroke-width:1.584;stroke-miterlimit:10;}
	.st85{fill:none;stroke:#C6C6C6;stroke-width:0.396;stroke-miterlimit:10;}
	.st86{fill:none;stroke:#7B6CEA;stroke-width:1.188;stroke-miterlimit:10;}
	.st87{fill:none;stroke:#7B6CEA;stroke-width:1.584;stroke-miterlimit:10;}
	.st88{fill:none;stroke:#FFFFFF;stroke-width:0.792;stroke-miterlimit:10;}
	.st89{fill:none;stroke:#C6C6C6;stroke-width:1.5398;stroke-miterlimit:10;}
	.st90{fill:none;stroke:#FFFFFF;stroke-width:0.6721;stroke-miterlimit:10;}
	.st91{fill:none;stroke:#FFFFFF;stroke-width:0.6711;stroke-miterlimit:10;}
	.st92{fill:none;stroke:#FFFFFF;stroke-width:0.6701;stroke-miterlimit:10;}
	.st93{fill:none;stroke:#FFFFFF;stroke-width:0.6735;stroke-miterlimit:10;}
	.st94{fill:none;stroke:#FFFFFF;stroke-width:3.1681;stroke-miterlimit:10;}
	.st95{fill:#F5F6F8;}
	.st96{fill:none;stroke:#C6C6C6;stroke-width:3.229;stroke-miterlimit:10;}
	.st97{fill:none;stroke:#BE1622;stroke-width:10;stroke-miterlimit:10;}
</style>
<g>
	<g>
		<path class="st0" d="M372.4,151.6H34.4c-3.9,0-7.1-3.2-7.1-7.1V12.6c0-3.9,3.2-7.1,7.1-7.1h338.1c3.9,0,7.1,3.2,7.1,7.1v131.9
			C379.6,148.4,376.4,151.6,372.4,151.6z"/>
		<path class="st84" d="M372.4,151.6H34.4c-3.9,0-7.1-3.2-7.1-7.1V12.6c0-3.9,3.2-7.1,7.1-7.1h338.1c3.9,0,7.1,3.2,7.1,7.1v131.9
			C379.6,148.4,376.4,151.6,372.4,151.6z"/>
	</g>
	<g>
		<path class="st57" d="M207.1,114.5v-4.2h0.6l1.4,2.1c0.3,0.5,0.6,0.9,0.8,1.4l0,0c0-0.6-0.1-1.1-0.1-1.7v-1.8h0.5v4.2h-0.6
			l-1.3-2.1c-0.3-0.5-0.6-1-0.8-1.4l0,0c0,0.5,0,1,0,1.7v1.8H207.1z"/>
		<path class="st57" d="M213.4,112.6h-1.6v1.5h1.8v0.5h-2.4v-4.2h2.3v0.5h-1.7v1.3h1.6V112.6z"/>
		<path class="st57" d="M215,114.5l-1.1-4.2h0.6l0.5,2.1c0.1,0.5,0.2,1.1,0.3,1.5h0c0.1-0.4,0.2-0.9,0.3-1.5l0.6-2.1h0.6l0.5,2.1
			c0.1,0.5,0.2,1,0.3,1.4h0c0.1-0.5,0.2-0.9,0.3-1.5l0.6-2.1h0.6l-1.2,4.2h-0.6l-0.5-2.2c-0.1-0.5-0.2-1-0.3-1.4h0
			c-0.1,0.4-0.2,0.8-0.3,1.4l-0.6,2.2H215z"/>
		<path class="st57" d="M219.6,113.9c0.2,0.2,0.6,0.3,1,0.3c0.6,0,0.9-0.3,0.9-0.7c0-0.4-0.2-0.6-0.8-0.8c-0.7-0.2-1.1-0.6-1.1-1.2
			c0-0.7,0.5-1.1,1.4-1.1c0.4,0,0.7,0.1,0.9,0.2l-0.2,0.4c-0.1-0.1-0.4-0.2-0.8-0.2c-0.6,0-0.8,0.3-0.8,0.6c0,0.4,0.3,0.6,0.8,0.8
			c0.7,0.3,1.1,0.6,1.1,1.2c0,0.7-0.5,1.2-1.5,1.2c-0.4,0-0.9-0.1-1.1-0.3L219.6,113.9z"/>
		<path class="st57" d="M224.6,110.8h-1.3v-0.5h3.1v0.5h-1.3v3.8h-0.6V110.8z"/>
		<path class="st57" d="M227.5,110.3v4.2h-0.5v-4.2H227.5z"/>
		<path class="st57" d="M229.2,110.8h-1.3v-0.5h3.1v0.5h-1.3v3.8h-0.6V110.8z"/>
		<path class="st57" d="M231.5,110.3h0.5v3.8h1.8v0.5h-2.4V110.3z"/>
		<path class="st57" d="M236.7,112.6H235v1.5h1.8v0.5h-2.4v-4.2h2.3v0.5H235v1.3h1.6V112.6z"/>
	</g>
	<rect x="37.7" y="17.8" class="st35" width="162.1" height="89.5"/>
	<rect x="207.2" y="17.8" class="st0" width="162.1" height="89.5"/>
	<rect x="38.3" y="124.5" class="st2" width="148.5" height="2.3"/>
	<rect x="38.3" y="128.2" class="st2" width="148.5" height="2.3"/>
	<rect x="38.3" y="135.1" class="st2" width="148.5" height="2.3"/>
	<rect x="38.3" y="131.5" class="st2" width="140.6" height="2.3"/>
	<rect x="206.4" y="17.8" class="st35" width="162.1" height="89.5"/>
	<g>
		<rect x="207" y="124.5" class="st2" width="148.5" height="2.3"/>
		<rect x="207" y="128.2" class="st2" width="148.5" height="2.3"/>
		<rect x="207" y="131.5" class="st2" width="140.6" height="2.3"/>
	</g>
	<polygon class="st34" points="34.2,110.9 6.8,84.1 33.3,57 34.2,110.9 	"/>
	<polygon class="st34" points="374,57 401.4,83.7 374.9,110.9 374,57 	"/>
	<g>
		<path class="st34" d="M129.8,78.8h-22c-2.2,0-4-1.8-4-4V50.3c0-2.2,1.8-4,4-4h22c2.2,0,4,1.8,4,4v24.5
			C133.8,77,132,78.8,129.8,78.8z"/>
		<path class="st0" d="M114.8,64.9c0,0-5,5.6-5.1,7s6.9-5,6.9-5l2.6,2.3l1.9-2c0,0-0.6-2.9,0.1-3.8s2.5-2.3,4.2-1.4l0.4,0.5l2-2.3
			l-6.8-7.4l-2.1,2c0,0,1.3,2.6-0.8,4.6c-2.1,2-4.2,0.6-4.2,0.6l-1.6,2.4L114.8,64.9z"/>
	</g>
	<g>
		<path class="st57" d="M38.2,114.5v-4.2h0.6l1.4,2.1c0.3,0.5,0.6,0.9,0.8,1.4l0,0c0-0.6-0.1-1.1-0.1-1.7v-1.8h0.5v4.2h-0.6
			l-1.3-2.1c-0.3-0.5-0.6-1-0.8-1.4l0,0c0,0.5,0,1,0,1.7v1.8H38.2z"/>
		<path class="st57" d="M44.5,112.6h-1.6v1.5h1.8v0.5h-2.4v-4.2h2.3v0.5h-1.7v1.3h1.6V112.6z"/>
		<path class="st57" d="M46.1,114.5l-1.1-4.2h0.6l0.5,2.1c0.1,0.5,0.2,1.1,0.3,1.5h0c0.1-0.4,0.2-0.9,0.3-1.5l0.6-2.1H48l0.5,2.1
			c0.1,0.5,0.2,1,0.3,1.4h0c0.1-0.5,0.2-0.9,0.3-1.5l0.6-2.1h0.6l-1.2,4.2h-0.6l-0.5-2.2c-0.1-0.5-0.2-1-0.3-1.4h0
			c-0.1,0.4-0.2,0.8-0.3,1.4l-0.6,2.2H46.1z"/>
		<path class="st57" d="M50.7,113.9c0.2,0.2,0.6,0.3,1,0.3c0.6,0,0.9-0.3,0.9-0.7c0-0.4-0.2-0.6-0.8-0.8c-0.7-0.2-1.1-0.6-1.1-1.2
			c0-0.7,0.5-1.1,1.4-1.1c0.4,0,0.7,0.1,0.9,0.2l-0.2,0.4c-0.1-0.1-0.4-0.2-0.8-0.2c-0.6,0-0.8,0.3-0.8,0.6c0,0.4,0.3,0.6,0.8,0.8
			c0.7,0.3,1.1,0.6,1.1,1.2c0,0.7-0.5,1.2-1.5,1.2c-0.4,0-0.9-0.1-1.1-0.3L50.7,113.9z"/>
		<path class="st57" d="M55.7,110.8h-1.3v-0.5h3.1v0.5h-1.3v3.8h-0.6V110.8z"/>
		<path class="st57" d="M58.6,110.3v4.2H58v-4.2H58.6z"/>
		<path class="st57" d="M60.3,110.8H59v-0.5h3.1v0.5h-1.3v3.8h-0.6V110.8z"/>
		<path class="st57" d="M62.6,110.3h0.5v3.8H65v0.5h-2.4V110.3z"/>
		<path class="st57" d="M67.8,112.6h-1.6v1.5H68v0.5h-2.4v-4.2h2.3v0.5h-1.7v1.3h1.6V112.6z"/>
	</g>
	<g>
		<path class="st57" d="M40.1,119.4c0,1.1-0.4,1.7-1.1,1.7c-0.6,0-1.1-0.6-1.1-1.7c0-1.1,0.5-1.7,1.1-1.7
			C39.7,117.8,40.1,118.4,40.1,119.4z M38.3,119.5c0,0.8,0.3,1.3,0.7,1.3c0.5,0,0.7-0.5,0.7-1.4c0-0.8-0.2-1.3-0.7-1.3
			C38.6,118.1,38.3,118.6,38.3,119.5z"/>
		<path class="st57" d="M41.5,118.2L41.5,118.2l-0.6,0.3l-0.1-0.3l0.7-0.4h0.4v3.3h-0.4V118.2z"/>
		<path class="st57" d="M42.9,121.3l1.4-3.6h0.3l-1.4,3.6H42.9z"/>
		<path class="st57" d="M47,119.4c0,1.1-0.4,1.7-1.1,1.7c-0.6,0-1.1-0.6-1.1-1.7c0-1.1,0.5-1.7,1.1-1.7
			C46.6,117.8,47,118.4,47,119.4z M45.2,119.5c0,0.8,0.3,1.3,0.7,1.3c0.5,0,0.7-0.5,0.7-1.4c0-0.8-0.2-1.3-0.7-1.3
			C45.5,118.1,45.2,118.6,45.2,119.5z"/>
		<path class="st57" d="M48.3,118.2L48.3,118.2l-0.6,0.3l-0.1-0.3l0.7-0.4h0.4v3.3h-0.4V118.2z"/>
		<path class="st57" d="M49.7,121.3l1.4-3.6h0.3l-1.4,3.6H49.7z"/>
		<path class="st57" d="M51.7,121.1v-0.3l0.3-0.3c0.8-0.8,1.2-1.2,1.2-1.7c0-0.3-0.2-0.6-0.6-0.6c-0.3,0-0.5,0.2-0.7,0.3l-0.1-0.3
			c0.2-0.2,0.5-0.3,0.9-0.3c0.7,0,1,0.5,1,0.9c0,0.6-0.4,1.1-1.1,1.8l-0.3,0.2v0h1.5v0.4H51.7z"/>
		<path class="st57" d="M56.4,119.4c0,1.1-0.4,1.7-1.1,1.7c-0.6,0-1.1-0.6-1.1-1.7c0-1.1,0.5-1.7,1.1-1.7
			C56,117.8,56.4,118.4,56.4,119.4z M54.7,119.5c0,0.8,0.3,1.3,0.7,1.3c0.5,0,0.7-0.5,0.7-1.4c0-0.8-0.2-1.3-0.7-1.3
			C54.9,118.1,54.7,118.6,54.7,119.5z"/>
		<path class="st57" d="M56.8,121.1v-0.3l0.3-0.3c0.8-0.8,1.2-1.2,1.2-1.7c0-0.3-0.2-0.6-0.6-0.6c-0.3,0-0.5,0.2-0.7,0.3l-0.1-0.3
			c0.2-0.2,0.5-0.3,0.9-0.3c0.7,0,1,0.5,1,0.9c0,0.6-0.4,1.1-1.1,1.8l-0.3,0.2v0h1.5v0.4H56.8z"/>
		<path class="st57" d="M59.4,121.1v-0.3l0.3-0.3c0.8-0.8,1.2-1.2,1.2-1.7c0-0.3-0.2-0.6-0.6-0.6c-0.3,0-0.5,0.2-0.7,0.3l-0.1-0.3
			c0.2-0.2,0.5-0.3,0.9-0.3c0.7,0,1,0.5,1,0.9c0,0.6-0.4,1.1-1.1,1.8l-0.3,0.2v0h1.5v0.4H59.4z"/>
	</g>
	<g>
		<path class="st57" d="M209,119.4c0,1.1-0.4,1.7-1.1,1.7c-0.6,0-1.1-0.6-1.1-1.7c0-1.1,0.5-1.7,1.1-1.7
			C208.6,117.8,209,118.4,209,119.4z M207.2,119.5c0,0.8,0.3,1.3,0.7,1.3c0.5,0,0.7-0.5,0.7-1.4c0-0.8-0.2-1.3-0.7-1.3
			C207.5,118.1,207.2,118.6,207.2,119.5z"/>
		<path class="st57" d="M210.4,118.2L210.4,118.2l-0.6,0.3l-0.1-0.3l0.7-0.4h0.4v3.3h-0.4V118.2z"/>
		<path class="st57" d="M211.8,121.3l1.4-3.6h0.3l-1.4,3.6H211.8z"/>
		<path class="st57" d="M215.9,119.4c0,1.1-0.4,1.7-1.1,1.7c-0.6,0-1.1-0.6-1.1-1.7c0-1.1,0.5-1.7,1.1-1.7
			C215.5,117.8,215.9,118.4,215.9,119.4z M214.1,119.5c0,0.8,0.3,1.3,0.7,1.3c0.5,0,0.7-0.5,0.7-1.4c0-0.8-0.2-1.3-0.7-1.3
			C214.4,118.1,214.1,118.6,214.1,119.5z"/>
		<path class="st57" d="M217.3,118.2L217.3,118.2l-0.6,0.3l-0.1-0.3l0.7-0.4h0.4v3.3h-0.4V118.2z"/>
		<path class="st57" d="M218.6,121.3l1.4-3.6h0.3l-1.4,3.6H218.6z"/>
		<path class="st57" d="M220.6,121.1v-0.3l0.3-0.3c0.8-0.8,1.2-1.2,1.2-1.7c0-0.3-0.2-0.6-0.6-0.6c-0.3,0-0.5,0.2-0.7,0.3l-0.1-0.3
			c0.2-0.2,0.5-0.3,0.9-0.3c0.7,0,1,0.5,1,0.9c0,0.6-0.4,1.1-1.1,1.8l-0.3,0.2v0h1.5v0.4H220.6z"/>
		<path class="st57" d="M225.3,119.4c0,1.1-0.4,1.7-1.1,1.7c-0.6,0-1.1-0.6-1.1-1.7c0-1.1,0.5-1.7,1.1-1.7
			C225,117.8,225.3,118.4,225.3,119.4z M223.6,119.5c0,0.8,0.3,1.3,0.7,1.3c0.5,0,0.7-0.5,0.7-1.4c0-0.8-0.2-1.3-0.7-1.3
			C223.9,118.1,223.6,118.6,223.6,119.5z"/>
		<path class="st57" d="M225.8,121.1v-0.3l0.3-0.3c0.8-0.8,1.2-1.2,1.2-1.7c0-0.3-0.2-0.6-0.6-0.6c-0.3,0-0.5,0.2-0.7,0.3l-0.1-0.3
			c0.2-0.2,0.5-0.3,0.9-0.3c0.7,0,1,0.5,1,0.9c0,0.6-0.4,1.1-1.1,1.8l-0.3,0.2v0h1.5v0.4H225.8z"/>
		<path class="st57" d="M228.3,121.1v-0.3l0.3-0.3c0.8-0.8,1.2-1.2,1.2-1.7c0-0.3-0.2-0.6-0.6-0.6c-0.3,0-0.5,0.2-0.7,0.3l-0.1-0.3
			c0.2-0.2,0.5-0.3,0.9-0.3c0.7,0,1,0.5,1,0.9c0,0.6-0.4,1.1-1.1,1.8l-0.3,0.2v0h1.5v0.4H228.3z"/>
	</g>
	<g>
		<path class="st57" d="M175.5,141.4c0.2,0,0.5-0.1,0.7-0.1c0.4,0,0.7,0.1,0.9,0.2c0.2,0.1,0.2,0.3,0.2,0.6c0,0.4-0.2,0.7-0.6,0.8v0
			c0.2,0.1,0.4,0.3,0.4,0.6c0.1,0.4,0.2,0.7,0.2,0.8h-0.4c0-0.1-0.1-0.3-0.2-0.7c-0.1-0.4-0.2-0.6-0.6-0.6h-0.4v1.3h-0.4V141.4z
			 M175.9,142.7h0.4c0.4,0,0.7-0.2,0.7-0.6c0-0.4-0.3-0.6-0.7-0.6c-0.2,0-0.3,0-0.4,0V142.7z"/>
		<path class="st57" d="M179.5,142.9h-1.2v1.1h1.3v0.3h-1.7v-3h1.6v0.3h-1.2v0.9h1.2V142.9z"/>
		<path class="st57" d="M180.6,143.4l-0.3,0.9h-0.4l1-3h0.5l1,3H182l-0.3-0.9H180.6z M181.6,143.1l-0.3-0.9
			c-0.1-0.2-0.1-0.4-0.2-0.5h0c0,0.2-0.1,0.4-0.2,0.5l-0.3,0.9H181.6z"/>
		<path class="st57" d="M182.8,141.4c0.2,0,0.5-0.1,0.8-0.1c0.6,0,1,0.1,1.2,0.4c0.3,0.2,0.4,0.6,0.4,1.1c0,0.5-0.2,0.9-0.4,1.2
			c-0.3,0.3-0.7,0.4-1.3,0.4c-0.3,0-0.5,0-0.7,0V141.4z M183.2,144c0.1,0,0.2,0,0.4,0c0.8,0,1.3-0.5,1.3-1.3c0-0.7-0.4-1.2-1.2-1.2
			c-0.2,0-0.4,0-0.5,0V144z"/>
		<path class="st57" d="M189.3,143c0-0.4,0-0.9,0-1.3h0c-0.1,0.4-0.2,0.7-0.4,1.1l-0.5,1.5H188l-0.5-1.4c-0.1-0.4-0.3-0.8-0.3-1.2h0
			c0,0.4,0,0.9-0.1,1.3l-0.1,1.3h-0.4l0.2-3h0.5l0.5,1.4c0.1,0.4,0.2,0.7,0.3,1h0c0.1-0.3,0.2-0.6,0.3-1l0.5-1.4h0.5l0.2,3h-0.4
			L189.3,143z"/>
		<path class="st57" d="M192.9,142.8c0,1-0.6,1.6-1.4,1.6c-0.8,0-1.3-0.6-1.3-1.5c0-1,0.6-1.6,1.4-1.6
			C192.3,141.3,192.9,141.9,192.9,142.8z M190.5,142.8c0,0.6,0.3,1.2,1,1.2c0.6,0,1-0.6,1-1.2c0-0.6-0.3-1.2-1-1.2
			C190.9,141.6,190.5,142.2,190.5,142.8z"/>
		<path class="st57" d="M193.4,141.4c0.2,0,0.5-0.1,0.7-0.1c0.4,0,0.7,0.1,0.9,0.2c0.2,0.1,0.2,0.3,0.2,0.6c0,0.4-0.2,0.7-0.6,0.8v0
			c0.2,0.1,0.4,0.3,0.4,0.6c0.1,0.4,0.2,0.7,0.2,0.8h-0.4c0-0.1-0.1-0.3-0.2-0.7c-0.1-0.4-0.2-0.6-0.6-0.6h-0.4v1.3h-0.4V141.4z
			 M193.8,142.7h0.4c0.4,0,0.7-0.2,0.7-0.6c0-0.4-0.3-0.6-0.7-0.6c-0.2,0-0.3,0-0.4,0V142.7z"/>
		<path class="st57" d="M197.3,142.9h-1.2v1.1h1.3v0.3h-1.7v-3h1.6v0.3h-1.2v0.9h1.2V142.9z"/>
	</g>
	<g>
		<path class="st57" d="M344,141.4c0.2,0,0.5-0.1,0.7-0.1c0.4,0,0.7,0.1,0.9,0.2c0.2,0.1,0.2,0.3,0.2,0.6c0,0.4-0.2,0.7-0.6,0.8v0
			c0.2,0.1,0.4,0.3,0.4,0.6c0.1,0.4,0.2,0.7,0.2,0.8h-0.4c0-0.1-0.1-0.3-0.2-0.7c-0.1-0.4-0.2-0.6-0.6-0.6h-0.4v1.3H344V141.4z
			 M344.4,142.7h0.4c0.4,0,0.7-0.2,0.7-0.6c0-0.4-0.3-0.6-0.7-0.6c-0.2,0-0.3,0-0.4,0V142.7z"/>
		<path class="st57" d="M348,142.9h-1.2v1.1h1.3v0.3h-1.7v-3h1.6v0.3h-1.2v0.9h1.2V142.9z"/>
		<path class="st57" d="M349.1,143.4l-0.3,0.9h-0.4l1-3h0.5l1,3h-0.4l-0.3-0.9H349.1z M350.1,143.1l-0.3-0.9
			c-0.1-0.2-0.1-0.4-0.2-0.5h0c0,0.2-0.1,0.4-0.2,0.5l-0.3,0.9H350.1z"/>
		<path class="st57" d="M351.3,141.4c0.2,0,0.5-0.1,0.8-0.1c0.6,0,1,0.1,1.2,0.4c0.3,0.2,0.4,0.6,0.4,1.1c0,0.5-0.2,0.9-0.4,1.2
			c-0.3,0.3-0.7,0.4-1.3,0.4c-0.3,0-0.5,0-0.7,0V141.4z M351.7,144c0.1,0,0.2,0,0.4,0c0.8,0,1.3-0.5,1.3-1.3c0-0.7-0.4-1.2-1.2-1.2
			c-0.2,0-0.4,0-0.5,0V144z"/>
		<path class="st57" d="M357.7,143c0-0.4,0-0.9,0-1.3h0c-0.1,0.4-0.2,0.7-0.4,1.1l-0.5,1.5h-0.3l-0.5-1.4c-0.1-0.4-0.3-0.8-0.3-1.2
			h0c0,0.4,0,0.9-0.1,1.3l-0.1,1.3h-0.4l0.2-3h0.5l0.5,1.4c0.1,0.4,0.2,0.7,0.3,1h0c0.1-0.3,0.2-0.6,0.3-1l0.5-1.4h0.5l0.2,3h-0.4
			L357.7,143z"/>
		<path class="st57" d="M361.4,142.8c0,1-0.6,1.6-1.4,1.6c-0.8,0-1.3-0.6-1.3-1.5c0-1,0.6-1.6,1.4-1.6
			C360.8,141.3,361.4,141.9,361.4,142.8z M359,142.8c0,0.6,0.3,1.2,1,1.2c0.6,0,1-0.6,1-1.2c0-0.6-0.3-1.2-1-1.2
			C359.3,141.6,359,142.2,359,142.8z"/>
		<path class="st57" d="M361.9,141.4c0.2,0,0.5-0.1,0.7-0.1c0.4,0,0.7,0.1,0.9,0.2c0.2,0.1,0.2,0.3,0.2,0.6c0,0.4-0.2,0.7-0.6,0.8v0
			c0.2,0.1,0.4,0.3,0.4,0.6c0.1,0.4,0.2,0.7,0.2,0.8h-0.4c0-0.1-0.1-0.3-0.2-0.7c-0.1-0.4-0.2-0.6-0.6-0.6h-0.4v1.3h-0.4V141.4z
			 M362.2,142.7h0.4c0.4,0,0.7-0.2,0.7-0.6c0-0.4-0.3-0.6-0.7-0.6c-0.2,0-0.3,0-0.4,0V142.7z"/>
		<path class="st57" d="M365.8,142.9h-1.2v1.1h1.3v0.3h-1.7v-3h1.6v0.3h-1.2v0.9h1.2V142.9z"/>
	</g>
</g>
</svg>
